<svg xmlns="http://www.w3.org/2000/svg" xmlns:xlink="http://www.w3.org/1999/xlink" width="1964" height="1124.999" viewBox="0 0 1964 1124.999">
  <defs>
    <filter id="Exclusion_9" x="0" y="0" width="1964" height="1124.999" filterUnits="userSpaceOnUse">
      <feOffset input="SourceAlpha"/>
      <feGaussianBlur stdDeviation="7.5" result="blur"/>
      <feFlood flood-opacity="0.443"/>
      <feComposite operator="in" in2="blur"/>
      <feComposite in="SourceGraphic"/>
    </filter>
  </defs>
  <g transform="matrix(1, 0, 0, 1, 0, 0)" filter="url(#Exclusion_9)">
    <path id="Exclusion_9-2" data-name="Exclusion 9" d="M1918.5,1079.5H.5V.5h1918v1079ZM1037.384,383.562V590.91a207.376,207.376,0,0,0,2.32,31.873,144.28,144.28,0,0,0,6.961,27.437,108.912,108.912,0,0,0,11.6,23,95.709,95.709,0,0,0,16.243,18.563,113.465,113.465,0,0,0,20.475,14.3,133.284,133.284,0,0,0,24.3,10.216,173.335,173.335,0,0,0,28.122,6.129,238.286,238.286,0,0,0,31.945,2.043,231.9,231.9,0,0,0,31.581-2.058,171.872,171.872,0,0,0,27.962-6.173,135.2,135.2,0,0,0,24.342-10.289,117.866,117.866,0,0,0,20.723-14.4,97.564,97.564,0,0,0,16.55-18.636,108.731,108.731,0,0,0,11.821-22.985,141.573,141.573,0,0,0,7.093-27.334,201.4,201.4,0,0,0,2.364-31.683V383.562h-73.318V590.91c0,12.395-1.257,23.3-3.736,32.4a68.193,68.193,0,0,1-4.67,12.477,49.235,49.235,0,0,1-6.538,10,38.793,38.793,0,0,1-8.99,7.662,54.1,54.1,0,0,1-12.025,5.472,85.671,85.671,0,0,1-15.06,3.284,139.369,139.369,0,0,1-18.1,1.095,117.11,117.11,0,0,1-20.14-1.576,61.537,61.537,0,0,1-15.586-4.728,62.324,62.324,0,0,1-11.85-7.238,48.393,48.393,0,0,1-8.932-9.107,52.371,52.371,0,0,1-6.187-10.8,57.439,57.439,0,0,1-3.62-12.318,151.809,151.809,0,0,1-2.335-26.618V383.562Zm370.8,0V717H1481.5V383.562Zm-669.678,0V717H974.339V655.356H811.823V383.562Zm-300.281,0V717h73.319V579.234H651.175V522.261H511.542V445.206H672.657V383.562Z" transform="translate(22.5 22.5)" fill="#fff" stroke="#707070" stroke-width="0"/>
  </g>
</svg>
